{
  "accessors": [
    {
      "bufferView": 2,
      "componentType": 5126,
      "count": 23289,
      "max": [
        0.9935951828956604,
        0.9935951828956604,
        0.9999999403953552
      ],
      "min": [
        -0.9935951828956604,
        -0.9935951232910156,
        -1.5110712051391602
      ],
      "type": "VEC3"
    },
    {
      "bufferView": 2,
      "byteOffset": 279468,
      "componentType": 5126,
      "count": 23289,
      "max": [
        1.0,
        1.0,
        1.0
      ],
      "min": [
        -1.0,
        -1.0,
        -1.0
      ],
      "type": "VEC3"
    },
    {
      "bufferView": 1,
      "componentType": 5126,
      "count": 23289,
      "max": [
        1.0000001192092896,
        1.000000238418579
      ],
      "min": [
        0.0,
        0.010000006295740604
      ],
      "type": "VEC2"
    },
    {
      "bufferView": 0,
      "componentType": 5125,
      "count": 131208,
      "type": "SCALAR"
    },
    {
      "bufferView": 2,
      "byteOffset": 558936,
      "componentType": 5126,
      "count": 42914,
      "max": [
        0.9835237860679626,
        0.9835237860679626,
        0.9909388422966003
      ],
      "min": [
        -0.9835236668586731,
        -1.3039698600769043,
        -0.23309409618377686
      ],
      "type": "VEC3"
    },
    {
      "bufferView": 2,
      "byteOffset": 1073904,
      "componentType": 5126,
      "count": 42914,
      "max": [
        0.9999896883964539,
        0.9999657869338989,
        1.0
      ],
      "min": [
        -0.9999658465385437,
        -0.9999528527259827,
        -1.0
      ],
      "type": "VEC3"
    },
    {
      "bufferView": 1,
      "byteOffset": 186312,
      "componentType": 5126,
      "count": 42914,
      "max": [
        1.0000001192092896,
        1.0000001192092896
      ],
      "min": [
        0.0,
        0.0
      ],
      "type": "VEC2"
    },
    {
      "bufferView": 0,
      "byteOffset": 524832,
      "componentType": 5125,
      "count": 241920,
      "type": "SCALAR"
    },
    {
      "bufferView": 2,
      "byteOffset": 1588872,
      "componentType": 5126,
      "count": 10128,
      "max": [
        0.9923604130744934,
        0.9911344051361084,
        5.552854537963867
      ],
      "min": [
        -0.9873924851417542,
        -0.9877930283546448,
        -4.790446758270264
      ],
      "type": "VEC3"
    },
    {
      "bufferView": 2,
      "byteOffset": 1710408,
      "componentType": 5126,
      "count": 10128,
      "max": [
        0.9999946355819702,
        0.9999195337295532,
        0.9966087937355042
      ],
      "min": [
        -0.9999727606773376,
        -0.9999976754188538,
        -0.9999583959579468
      ],
      "type": "VEC3"
    },
    {
      "bufferView": 1,
      "byteOffset": 529624,
      "componentType": 5126,
      "count": 10128,
      "max": [
        1.0073543787002563,
        0.988948404788971
      ],
      "min": [
        -0.007353902794420719,
        0.011051422916352749
      ],
      "type": "VEC2"
    },
    {
      "bufferView": 0,
      "byteOffset": 1492512,
      "componentType": 5125,
      "count": 55296,
      "type": "SCALAR"
    }
  ],
  "asset": {
    "extras": {
      "author": "Šimon Ustal (https://sketchfab.com/simonustal)",
      "license": "CC-BY-4.0 (http://creativecommons.org/licenses/by/4.0/)",
      "source": "https://sketchfab.com/3d-models/coffee-cup-88be308975644de6b6d188915294f5c2",
      "title": "Coffee Cup"
    },
    "generator": "Sketchfab-10.85.0",
    "version": "2.0"
  },
  "bufferViews": [
    {
      "buffer": 0,
      "byteLength": 1713696,
      "name": "floatBufferViews",
      "target": 34963
    },
    {
      "buffer": 0,
      "byteLength": 610648,
      "byteOffset": 1713696,
      "byteStride": 8,
      "name": "floatBufferViews",
      "target": 34962
    },
    {
      "buffer": 0,
      "byteLength": 1831944,
      "byteOffset": 2324344,
      "byteStride": 12,
      "name": "floatBufferViews",
      "target": 34962
    }
  ],
  "buffers": [
    {
      "byteLength": 4156288,
      "uri": "scene.bin"
    }
  ],
  "images": [
    {
      "uri": "textures/Material.006_baseColor.png"
    },
    {
      "uri": "textures/Material.006_metallicRoughness.png"
    }
  ],
  "materials": [
    {
      "doubleSided": true,
      "name": "Material",
      "pbrMetallicRoughness": {
        "metallicFactor": 0.0,
        "roughnessFactor": 0.4693148860879558
      }
    },
    {
      "doubleSided": true,
      "name": "Material.005",
      "pbrMetallicRoughness": {
        "metallicFactor": 0.0,
        "roughnessFactor": 0.49971575190461426
      }
    },
    {
      "doubleSided": true,
      "name": "Material.006",
      "occlusionTexture": {
        "index": 1
      },
      "pbrMetallicRoughness": {
        "baseColorTexture": {
          "index": 0
        },
        "metallicFactor": 0.0,
        "metallicRoughnessTexture": {
          "index": 1
        }
      }
    }
  ],
  "meshes": [
    {
      "name": "Cylinder.001_Material_0",
      "primitives": [
        {
          "attributes": {
            "NORMAL": 1,
            "POSITION": 0,
            "TEXCOORD_0": 2
          },
          "indices": 3,
          "material": 0,
          "mode": 4
        }
      ]
    },
    {
      "name": "Cylinder.003_Material.005_0",
      "primitives": [
        {
          "attributes": {
            "NORMAL": 5,
            "POSITION": 4,
            "TEXCOORD_0": 6
          },
          "indices": 7,
          "material": 1,
          "mode": 4
        }
      ]
    },
    {
      "name": "Cylinder.005_Material.006_0",
      "primitives": [
        {
          "attributes": {
            "NORMAL": 9,
            "POSITION": 8,
            "TEXCOORD_0": 10
          },
          "indices": 11,
          "material": 2,
          "mode": 4
        }
      ]
    }
  ],
  "nodes": [
    {
      "children": [
        1
      ],
      "matrix": [
        1.0,
        0.0,
        0.0,
        0.0,
        0.0,
        2.220446049250313e-16,
        -1.0,
        0.0,
        0.0,
        1.0,
        2.220446049250313e-16,
        0.0,
        0.0,
        0.0,
        0.0,
        1.0
      ],
      "name": "Sketchfab_model"
    },
    {
      "children": [
        2
      ],
      "matrix": [
        1.0,
        0.0,
        0.0,
        0.0,
        0.0,
        0.0,
        1.0,
        0.0,
        0.0,
        -1.0,
        0.0,
        0.0,
        0.0,
        0.0,
        0.0,
        1.0
      ],
      "name": "f8c0fc2b088f4ebca21992ff1061118b.fbx"
    },
    {
      "children": [
        3,
        6,
        8,
        11,
        13,
        16,
        18,
        21,
        23
      ],
      "name": "RootNode"
    },
    {
      "children": [
        4
      ],
      "matrix": [
        16.602392841200942,
        35.77623216345006,
        -91.89354324441041,
        0.0,
        67.66047947576666,
        63.65895920260845,
        37.00807960741756,
        0.0,
        71.73855326372126,
        -68.31982308867877,
        -13.637456613350459,
        0.0,
        446.5074157714844,
        408.5574645996094,
        229.1246337890625,
        1.0
      ],
      "name": "Light"
    },
    {
      "children": [
        5
      ],
      "matrix": [
        1.0,
        0.0,
        0.0,
        0.0,
        0.0,
        2.220446049250313e-16,
        1.0,
        0.0,
        0.0,
        -1.0,
        2.220446049250313e-16,
        0.0,
        0.0,
        0.0,
        0.0,
        1.0
      ],
      "name": "Object_4"
    },
    {
      "name": "Object_5"
    },
    {
      "children": [
        7
      ],
      "matrix": [
        -49.77517852078463,
        -72.94546561500911,
        -46.91896336828741,
        0.0,
        -53.08068739537117,
        68.40291100737556,
        -50.03481179490876,
        0.0,
        68.59206319178247,
        -8.618785088644946e-06,
        -72.76762563953561,
        0.0,
        287.2471923828125,
        372.694580078125,
        248.89662170410156,
        1.0
      ],
      "name": "Camera"
    },
    {
      "name": "Object_7"
    },
    {
      "children": [
        9
      ],
      "matrix": [
        14.53323312577821,
        -36.484227175641756,
        -91.96568002416959,
        0.0,
        -68.62075168654007,
        63.24490565002676,
        -35.93430599431998,
        0.0,
        71.27396139464952,
        68.32995738850842,
        -15.844221356653442,
        0.0,
        -336.1037292480469,
        371.8814697265625,
        -174.56329345703125,
        1.0
      ],
      "name": "Light.001"
    },
    {
      "children": [
        10
      ],
      "matrix": [
        1.0,
        0.0,
        0.0,
        0.0,
        0.0,
        2.220446049250313e-16,
        1.0,
        0.0,
        0.0,
        -1.0,
        2.220446049250313e-16,
        0.0,
        0.0,
        0.0,
        0.0,
        1.0
      ],
      "name": "Object_9"
    },
    {
      "name": "Object_10"
    },
    {
      "children": [
        12
      ],
      "matrix": [
        83.6282730102539,
        0.0,
        0.0,
        0.0,
        -0.0,
        -1.3624775055196125e-05,
        -83.6282730102528,
        0.0,
        0.0,
        5.068729877471857,
        -8.258009152914002e-07,
        0.0,
        -0.21637678146362305,
        3.9268970489501953,
        -2.4121484756469727,
        1.0
      ],
      "name": "Cylinder.001"
    },
    {
      "mesh": 0,
      "name": "Cylinder.001_Material_0"
    },
    {
      "children": [
        14
      ],
      "matrix": [
        16.60238004662219,
        35.776238100926165,
        -91.89354324441041,
        0.0,
        67.6604857550761,
        63.65894596565504,
        37.0080702810746,
        0.0,
        71.73854543376626,
        -68.31982778792484,
        -13.637474260173736,
        0.0,
        446.5074157714844,
        408.5574645996094,
        229.12461853027344,
        1.0
      ],
      "name": "Light.002"
    },
    {
      "children": [
        15
      ],
      "matrix": [
        1.0,
        0.0,
        0.0,
        0.0,
        0.0,
        2.220446049250313e-16,
        1.0,
        0.0,
        0.0,
        -1.0,
        2.220446049250313e-16,
        0.0,
        0.0,
        0.0,
        0.0,
        1.0
      ],
      "name": "Object_14"
    },
    {
      "name": "Object_15"
    },
    {
      "children": [
        17
      ],
      "matrix": [
        -49.77519101410712,
        -72.94546524664227,
        -46.91896694792048,
        0.0,
        -53.08067927977944,
        68.40291211635855,
        -50.03480364026699,
        0.0,
        68.59205479476675,
        -1.2718463950886336e-05,
        -72.76762307011255,
        0.0,
        287.2471923828125,
        372.6945495605469,
        248.89662170410156,
        1.0
      ],
      "name": "Camera.001"
    },
    {
      "name": "Object_17"
    },
    {
      "children": [
        19
      ],
      "matrix": [
        14.533233125778189,
        -36.484227175641756,
        -91.9656800241696,
        0.0,
        -68.62073795467407,
        63.244908970387975,
        -35.934305141527965,
        0.0,
        71.27396413710773,
        68.32994463596623,
        -15.84421586413242,
        0.0,
        -336.1037292480469,
        371.8814697265625,
        -174.56329345703125,
        1.0
      ],
      "name": "Light.003"
    },
    {
      "children": [
        20
      ],
      "matrix": [
        1.0,
        0.0,
        0.0,
        0.0,
        0.0,
        2.220446049250313e-16,
        1.0,
        0.0,
        0.0,
        -1.0,
        2.220446049250313e-16,
        0.0,
        0.0,
        0.0,
        0.0,
        1.0
      ],
      "name": "Object_19"
    },
    {
      "name": "Object_20"
    },
    {
      "children": [
        22
      ],
      "matrix": [
        0.7169642250860272,
        0.05719490809570419,
        -54.713660387491224,
        0.0,
        -54.71326710415884,
        0.21788970468421293,
        -0.7167313005910607,
        0.0,
        0.21712169556119965,
        54.71792770426085,
        0.06004451742348586,
        0.0,
        -0.541023313999176,
        10.016550064086914,
        -1.4621981382369995,
        1.0
      ],
      "name": "Cylinder.003"
    },
    {
      "mesh": 1,
      "name": "Cylinder.003_Material.005_0"
    },
    {
      "children": [
        24
      ],
      "matrix": [
        43.409666389120076,
        -1.093457855879262e-06,
        -24.19329586846175,
        0.0,
        -24.19329586846162,
        -7.487131124899203e-06,
        -43.409666389119515,
        0.0,
        -8.365518164245732e-08,
        1.5456104278564275,
        -2.1995776934268542e-07,
        0.0,
        0.22936253249645233,
        59.33896255493164,
        -1.9419245719909668,
        1.0
      ],
      "name": "Cylinder.005"
    },
    {
      "mesh": 2,
      "name": "Cylinder.005_Material.006_0"
    }
  ],
  "samplers": [
    {
      "magFilter": 9729,
      "minFilter": 9987,
      "wrapS": 10497,
      "wrapT": 10497
    }
  ],
  "scene": 0,
  "scenes": [
    {
      "name": "Sketchfab_Scene",
      "nodes": [
        0
      ]
    }
  ],
  "textures": [
    {
      "sampler": 0,
      "source": 0
    },
    {
      "sampler": 0,
      "source": 1
    }
  ]
}
